<?xml version="1.0" encoding="utf-8"?>
<!-- Generator: Adobe Illustrator 23.0.3, SVG Export Plug-In . SVG Version: 6.00 Build 0)  -->
<svg xmlns="http://www.w3.org/2000/svg" xmlns:xlink="http://www.w3.org/1999/xlink">
<symbol id="icon-toy" viewBox="226 226.19 60 59.62">
	<path d="M226.58,269.71l26.91,15.75v-23.07l-26.91-15.75V269.71z M276.93,238.83v2.42
	c0,1.8-3.39,3.25-7.58,3.25c-4.18,0-7.58-1.46-7.58-3.25v-4.01h0.02c0.25,1.69,3.53,3.04,7.55,3.04c4.19,0,7.58-1.46,7.58-3.25
	c0-1.8-3.39-3.25-7.58-3.25c-0.33,0-0.66,0.01-0.98,0.03l-4.88-2.85v3.05c0,1.8-3.39,3.25-7.57,3.25c-2.63,0-4.95-0.58-6.31-1.45
	c-0.19-0.2-0.43-0.4-0.72-0.58c-0.36-0.38-0.55-0.79-0.55-1.22v-2.95l-4.71,2.76c-0.34-0.02-0.68-0.03-1.03-0.03
	c-4.18,0-7.58,1.45-7.58,3.25c0,1.79,3.39,3.25,7.58,3.25c4.02,0,7.3-1.34,7.56-3.04h0.02v4.01c0,1.8-3.39,3.25-7.58,3.25
	c-4.18,0-7.58-1.46-7.58-3.25v-2.39l-5.84,3.41l27,15.8l26.82-15.7L276.93,238.83z M263.55,248.88c0,1.8-3.39,3.25-7.58,3.25
	c-4.19,0-7.58-1.45-7.58-3.25v-4.01h0.02c0.25,1.69,3.53,3.04,7.56,3.04c4.02,0,7.3-1.35,7.56-3.04h0.02V248.88L263.55,248.88z
	 M258.51,262.59v22.87l26.91-15.75v-22.87L258.51,262.59z M255.92,233.03c4.19,0,7.57-1.45,7.57-3.25c0-1.79-3.39-3.25-7.57-3.25
	c-4.19,0-7.58,1.46-7.58,3.25C248.34,231.58,251.73,233.03,255.92,233.03"/>
</symbol>
</svg>
