<?xml version="1.0" encoding="UTF-8"?><!DOCTYPE svg PUBLIC "-//W3C//DTD SVG 1.1//EN" "http://www.w3.org/Graphics/SVG/1.1/DTD/svg11.dtd"><svg xmlns="http://www.w3.org/2000/svg" xmlns:xlink="http://www.w3.org/1999/xlink"><symbol id="icon-arrow_left" viewBox="0 0 50 26">
<polygon points="50,11 7.7,11 15.8,2.8 13,0 0,13 0,13 0,13 13,26 15.8,23.2 7.7,15 50,15 "/>
</symbol><symbol id="icon-arrow_right" viewBox="0 0 50 26">
<polygon points="0,11 42.3,11 34.2,2.8 37,0 50,13 50,13 50,13 37,26 34.2,23.2 42.3,15 0,15 "/>
</symbol><symbol id="icon-cart" viewBox="264.2 371 20.3 18.8">
<path d="M283.7,378.2h-3.2l-3.4-6.8c-0.2-0.4-0.6-0.5-1-0.3c-0.4,0.2-0.5,0.6-0.3,1l3.1,6.1h-9.1l3.1-6.1
	c0.2-0.4,0-0.8-0.3-1c-0.4-0.2-0.8,0-1,0.3l-3.4,6.8H265c-0.4,0-0.8,0.3-0.8,0.8c0,0.4,0.3,0.8,0.8,0.8h0.2l0.9,3
	c-0.2,0.1-0.3,0.3-0.3,0.6c0,0.4,0.3,0.7,0.7,0.7l1.7,5.8h12.7l1.7-5.8c0.4,0,0.7-0.3,0.7-0.7c0-0.2-0.1-0.5-0.3-0.6l0.9-3h0.2
	c0.4,0,0.8-0.3,0.8-0.8C284.5,378.5,284.2,378.2,283.7,378.2z M279.6,388.3h-10.4l-1.2-4.3h12.9L279.6,388.3z M281.2,382.5h-13.7
	l-0.8-2.8H282L281.2,382.5z"/>
</symbol><symbol id="icon-fb" viewBox="56.5 50 15 27.7">
<g id="facebook">
	<g>
		<path d="M68.2,55.2c1,0,2,0,2.7-0.3c0.4-0.8,0.6-1.9,0.6-3c-0.2,0-0.1-0.3-0.2-0.4c0-0.2-0.3-0.2-0.3-0.4
			c-0.3-0.2-0.5-0.4-0.7-0.6c-0.7-0.2-1.4-0.3-2.2-0.5c-0.8,0-1.9-0.1-2.6,0.1c-2.6,0-4,1.1-5.3,2.4c0,0.1,0,0.2-0.1,0.2
			c-0.6,1.6-0.1,3.6-0.2,5.6c0.1,0.4,0.1,1,0.2,1.4c-1,0.3-2.2,0.4-3.4,0.5c-0.3,0.3-0.2,1.1-0.2,1.7c0.1,0.6,0.3,1.1,0.4,1.6
			c0.2,0.2,0.6,0.4,0.8,0.5c0.1,0,0.1,0.1,0.1,0.1c0.5,0.3,1.5,0,2.3,0.1c-0.1,2,0.3,3.9,0,5.7c0,0.3,0.3,0.4,0.2,0.8
			c0,1-0.1,2,0.2,2.7c-0.3,0.5-0.5,1-0.4,1.8c0.1,0,0.1,0.2,0.1,0.3c-0.1,0.5,0.6,0.2,0.5,0.7c0.2,0.5-0.4,0.2-0.4,0.5v0.9
			c0.5,0.3,1.5,0.2,2.3,0.2c0.9-0.4,2.2-0.5,2.8-1.2c0.5,0.2,0.9,0,1.2-0.2c0-0.3,0.3-0.3,0.2-0.7c0-0.3-0.2-0.5-0.1-0.9v-2.9
			c-0.2-2.3,0-4.9-0.3-7.2c0.9-0.1,1.9-0.1,2.6-0.4c0.4-0.5,0.4-1.2,0.5-1.9c0.2-0.2,0.2-0.6,0.2-1c0.2-0.2,0.1-0.7,0.1-1.1
			c-0.1-0.6-0.2-1.3-0.8-1.4c-0.9-0.2-2,0.6-3,0.3c0-1.1-0.3-2.3,0-3.4C66.8,55.6,67.5,55.4,68.2,55.2z M64.4,60
			c0.1,0.3,0.3,0.5,0.4,0.7c0.1,0,0.2,0,0.2,0.1c1.2,0.1,2.2-0.1,3.1-0.3c0,1-0.3,1.7-0.5,2.5c-0.7,0-1.5,0.3-2,0.2
			c-0.3,0.2-0.4,0.5-0.6,0.7c0,0.4,0.1,0.5,0,0.8c-0.2,0.1-0.1,0.6-0.2,0.8v1.5c0.1,0.3-0.1,0.3-0.1,0.5v3.5
			c-0.1,0.3,0.1,0.3,0.1,0.5v3c0.1,0.3-0.1,0.8,0.1,0.9c-0.1,0.4-0.4,0-0.8,0.1c-0.5,0.1-0.9,0.4-1.5,0.4c0.1-0.4,0.3-0.6,0.3-1.1
			c0-0.4-0.4-0.3-0.5-0.5c0.2-0.6,0.6-1.1,0.7-1.8c0.2-0.5,0.7-1.3,0.3-1.8c-0.5-0.1-0.5,0.3-0.8,0.4c0,0.1,0,0.2-0.1,0.2
			c0,0.1,0,0.2-0.1,0.2c0,0.1-0.2,0.1,0,0c0-0.1,0-0.2,0.1-0.2c0-0.1,0-0.2,0.1-0.2v-0.3c0.4-0.6,0.7-1.2,0.8-2
			c0.2-0.3,0.3-0.7,0.4-1c0.2-0.3,0.3-0.9,0.1-1.2c-0.5,0-0.8,0.3-0.9,0.7c-0.3-0.2,0.2-0.4,0.1-0.7c0.1-0.2,0.2-0.6,0.3-0.8
			c0.2-0.4,0.6-1.3,0-1.6c-0.4,0-0.6,0.2-0.7,0.5c-0.2,0.2-0.4,0.4-0.5,0.7c-0.4-0.1-0.1-0.7-0.2-1.1c-0.1-0.5,0.1-0.9,0-1.2
			c-0.6-0.8-2-0.1-3.2-0.3c-0.1-0.3-0.2-1-0.1-1.2c1-0.1,2.5,0.2,3.2-0.2c0-0.1,0-0.2,0.1-0.2c0.1-0.7-0.3-1-0.5-1.4
			c0.2-0.8,0-2,0.1-3c0.2-0.1,0.3-0.4,0.5-0.6c0.1-1,0.7-1.5,0.7-2.5c-0.3,0-0.6-0.1-0.6,0.2c-0.3-0.1-0.4,0.5-0.5,0.2
			c-0.1-0.5,0.2-0.6,0.3-1c0.6-0.4,1.2-0.8,1.9-1.2c1.7-0.2,4.6-0.4,6.1,0.2c0.1,0.6-0.3,0.9-0.2,1.5h-1.5c-1.1,0.2-2,0.7-3,1
			c-0.2,0.1-0.3,0.3-0.5,0.4c0,0.4-0.2,0.6-0.3,1C64.2,57.4,64.4,58.6,64.4,60z"/>
	</g>
</g>
</symbol><symbol id="icon-footer_logo" viewBox="0 0 101.6 34.1">
<g>
	<path d="M19.1,21.5c-0.1-2.7-0.5-5.3-0.5-8c0-2.2,0.4-4.4-0.4-6.5c0-0.2,0.1-0.5,0.1-0.7c0.2-1-3.3-0.5-3.8,0.5
		c-0.3,0.3-0.5,0.6-0.4,1c0,0.1,0.1,0.2,0.1,0.3c-0.7,3.2-1.6,6.3-2.6,9.4c-0.4,1.2-0.9,2.3-1.3,3.5c-0.6-1.1-1.2-2.2-1.6-3.4
		c-1.4-3.4-2.6-6.9-4.3-10.2c0.2-1.5-3.2-1.4-3.9,0c-0.8,1.7-0.7,3.4-0.4,5.2c0.3,2,0.4,4,0.4,6.1c0,4,0.4,7.9,0.4,11.9
		c-0.4,0.4-0.5,0.9-0.1,1.4c0.2,0.2,0.4,0.4,0.6,0.5C2.4,33.2,5,32.6,5,31.2c0-4.1-0.3-8.2-0.4-12.4c0-0.4,0-0.8,0-1.2
		c0.1,0.1,0.1,0.3,0.2,0.4c0.6,1.6,1.3,3.2,2.2,4.7c0.9,1.5,1.3,3.1,1.8,4.7c-0.2,0.2-0.3,0.5-0.2,0.7c0,0.2,0.1,0.3,0.3,0.4
		c0.6,0.5,1.8,0.3,2.5,0c0.3-0.1,0.6-0.3,0.8-0.4c0.3-0.2,0.9-0.7,0.7-1.2c0-0.1-0.1-0.2-0.1-0.3c0.5-1.3,0.7-2.6,1-3.9
		c0.3-1.4,0.8-2.8,1.3-4.1c0.1,0.6,0.1,1.2,0.2,1.9c0.2,2.6,0,5.1,0,7.6c0,0.8,0.1,1.6,0.2,2.5c0.1,0.3,0.4,1.8,0.3,1.9
		C15,33,15.2,33.6,16,33.8c0.9,0.2,2.1-0.1,2.8-0.7c1.2-1.1,0.6-2.8,0.4-4.2C18.7,26.5,19.2,23.9,19.1,21.5z"/>
	<path d="M27.5,22.2c-0.1-2-0.8-3.9-0.8-5.9c0-2.3,0.2-4.6-0.2-6.9c-0.1-0.7-4.1,0.1-3.9,1c0.3,2.1,0.2,4.2,0.2,6.4
		c0,2,0.5,3.9,0.7,5.9c0.3,2.1-0.1,4.2,0.1,6.2c0.1,1,0.8,2.7,0.1,3.6c-0.4,0.5,1.5,0.3,1.6,0.3c0.8-0.1,1.8-0.4,2.3-1
		c0.7-0.8,0.2-2.4,0.1-3.4C27.4,26.4,27.6,24.2,27.5,22.2z"/>
	<path d="M43.8,18.9c-2.1-2.8-5.9-0.8-8.6-1.5c-1.4-0.4-1.4-2.3-1.4-3.4c0-1.4-0.1-2.7-0.3-4.1c-0.1-1.1,0-2.1,0.7-2.9
		c0.1-0.1,0.9-0.3,0.8-0.3c0.4-0.1,0.7-0.1,1.1-0.1c1.5-0.1,4.6,0.2,4,2.5c-0.3,1,3.6,0.4,3.9-0.6c1.2-4.6-7.3-3.7-9.7-3.1
		c-2.2,0.6-4.6,1.8-4.8,4.4c-0.1,1.2,0.3,2.4,0.3,3.6c0.1,1.4-0.2,2.8,0.3,4.1c1.1,3,5.5,1.6,7.8,1.7c3.8,0.3,2.7,5.5,2.7,7.9
		c0,1.3,1.2,3.4,0.2,4.5c-0.6,0.7-2,0.7-2.8,0.8c-0.8,0.1-2.2,0.3-2.7-0.5c-1-1.4,0.1-3.8-0.1-5.4c-0.1-0.9-4.1-0.1-3.9,1
		c0.3,2.6-1.4,6.1,2.4,6.6c2.4,0.3,5.2-0.2,7.5-0.9c1.2-0.4,2.3-0.9,3.2-1.8c1-0.9,0.7-2.3,0.4-3.5C44.3,24.8,45.7,21.4,43.8,18.9z"/>
	<path d="M61.2,18.7c-0.1-3.8-0.7-7.5-0.7-11.3c0-2-4-1.3-4,0.3c0,3.6,0.5,7.2,0.7,10.8c0,0.1,0,0.1,0,0.2c-1.9,0-3.9,0.2-5.9,0.2
		c0.2-4.6-0.6-9.2-0.4-13.9c0-0.6-3.9-0.1-3.9,1c-0.2,4.5,0.6,8.9,0.5,13.4c-0.1,2.1-0.2,4.3-0.3,6.4c0,1.1,0.2,2.2,0.3,3.3
		c0.1,1,0.5,2.3,0.2,3.3c-0.2,0.8,3.6,0.3,3.9-0.7c0.5-1.8-0.2-4-0.4-5.8c-0.2-1.7,0-3.5,0.1-5.2c2-0.1,4.1-0.3,6.1,0
		c0.1,1.4,0.2,2.8,0.3,4.1c0.1,1.2,0.2,2.3,0.2,3.5c0,1,0.1,2.5-0.2,3.5c-0.8,2.1,3.1,1.9,3.7,0.4c0.7-1.9,0.5-4.2,0.4-6.2
		C61.6,23.5,61.2,21.1,61.2,18.7z"/>
	<path d="M78.1,23.1c-0.9-2.8-2.4-5.2-3.6-7.8c1-1.9,2-3.9,2.9-5.9c0.8-1.8,1.4-3.8,3.1-5.1c0.6-0.4,0.6-0.9-0.3-1
		c-0.9-0.1-2.1,0.2-2.8,0.7C76,5.3,75,6.7,74.3,8.4c-0.9,2.1-1.9,4.1-2.9,6.1c-0.1,0.1-0.1,0.3-0.2,0.4c-0.5,0.3-0.8,0.8-0.6,1.3
		c-0.8,1.6-1.6,3.1-2.5,4.6c-0.3-5.5-1-11.1-1.2-16.6c0-1.3-4-0.5-3.9,1c0.2,6.9,1.2,13.7,1.3,20.6c0,0,0,0,0,0.1
		c-0.3,0.3-0.2,0.5,0.1,0.6c0,1.8-0.1,3.5-0.2,5.3c-0.5,0.7,0.5,1.1,1.1,1.1c0,0,0.1,0,0.1,0c0.7,0,2.6-0.3,2.7-1.4
		c0.2-2.1,0.3-4.2,0.2-6.3c1.6-1.7,2.9-3.6,4.1-5.6c0.8,1.5,1.5,3,2,4.6c0.9,2.7,2.3,5.3,3.1,8c0.5,1.8,4.5,0.7,3.9-1
		C80.4,28.4,79,25.9,78.1,23.1z"/>
	<path d="M101.6,18.5c-0.2-0.8-1.4-0.8-2.3-0.8c0-0.3,0-0.7,0-1c-0.1-2.7-0.2-5.4-0.4-8c-0.2-2.5-1.6-3.3-4-3.2
		c-2.4,0.1-5.2,0.5-7.5,1.4c-2.6,1-4.1,2.9-4.6,5.7c-0.5,3,0.2,6.2,0.4,9.2c0.2,3.5,0.1,7,0.1,10.5c0,0.6,3.9,0,3.9-1
		c0-2.8,0-5.6,0-8.3c0-0.8-0.1-1.6-0.1-2.4c1.4-0.6,3.7,0,5.1,0.1c1.1,0.1,2.2-0.2,3.2-0.3c0,2.3,0.1,4.6,0.2,6.9
		c0,1.2,0.5,3.5-0.4,4.5c-0.4,0.5,1.5,0.3,1.6,0.3c0.8-0.1,1.8-0.4,2.3-1c0.9-1.1,0.5-3.8,0.4-5.1c-0.1-1.9-0.1-3.8-0.1-5.7
		C100.5,20.1,101.8,19.4,101.6,18.5z M87,18.4c-0.1-1.2-0.2-2.5-0.3-3.7c-0.2-2.3,0.1-5.6,2.3-7c0.6-0.4,1.7-0.3,2.4-0.4
		c1-0.2,2-0.4,2.8,0.2c1.2,0.8,0.9,3.7,0.9,4.9c0,2,0.2,4,0.3,6c-0.6,0.1-1.1,0.1-1.7,0.1C91.4,18.3,89.1,17.9,87,18.4z"/>
	<path d="M24.1,6.7c0.5-0.1,1-0.2,1.5-0.5C25.7,6.1,25.8,6,25.8,6c0.5-0.3,1-0.8,0.7-1.4c-0.5-1.1-0.4-2.2-0.4-3.4
		c0-1-1-1.2-1.8-1.2c-0.7,0.1-2.2,0.6-2.2,1.5c0,1-0.1,2,0.1,3c0,0.1-0.1,0.2-0.1,0.4c-0.1,0.2,0,0.4,0.1,0.6c0,0,0,0.1,0,0.1
		c0,0.1,0,0.2,0,0.3c0.1,0.2,0.2,0.4,0.4,0.5C23.2,6.7,23.7,6.7,24.1,6.7z"/>
</g>
</symbol><symbol id="icon-htmlacademy" viewBox="0 0 154.4 195.3">
<path stroke-miterlimit="10" d="M78,0.6l-0.8-0.1l-76.7,8v140.6l76.7,45.6l76.7-45.6V8.5L78,0.6z M143.9,143.4
	l-66.7,39.7l-66.7-39.7V85.8l66.4,39.5l0.1,7.2l-45.5-27.1l-0.1,7l45.7,27.5l0.1,7.3l-45.7-27.2l-0.1,7l45.7,27.5l46.2-27.6v-7
	l-0.1,0v-2.4v-2.9V97.1l20.6-12.3V143.4z M143.8,77.3l-18.2,10.7l-8.4,5L77,69.2l-0.1,7l34.3,20.4l-0.3,0.2l-0.7,0.4l-4.9,2.9
	L77,83.2l-0.1,7l22.4,13.3l-5.3,3.5l-0.1,0.1L77,97.1l-0.1,7l11.1,6.5l-11.3,6.8l-66-39.3l66.1-39.8v0L143.8,77.3z M143.9,70.4
	l-67-39.5v0l0,0l0,0v0L10.5,70.3V17.6l66.7-7l66.7,7V70.4z"/>
</symbol><symbol id="icon-instagram" viewBox="53.1 53.2 21.8 21.3">
<g id="instagram">
	<g>
		<path d="M74.9,65.3c0-2.4-0.3-4.8-0.3-7.1c0-0.8-0.1-1.5-0.2-2.3c-0.1-0.3-0.1-0.7-0.2-1.1
			c-0.3-0.2-0.2-0.6-0.5-0.8c-0.4-0.2-1.2-0.1-1.7-0.2c-0.7,0-1.3-0.1-1.9-0.2c-1.9-0.1-4-0.1-6-0.1c-2,0-4-0.1-5.7-0.4h-2.2
			c-0.1,0-0.1,0.1-0.2,0.1c-0.6,0-1.1,0.2-1.6,0.3c-0.2,0.1-0.4,0.2-0.7,0.3c-0.1,0.2-0.5,0.1-0.6,0.4c-0.2,0.2,0.2,0.5,0,0.6v0.9
			c0.2,0.1,0,0.6,0.1,0.8v1c0,1.3,0.1,2.4,0.1,3.7c0.5,2.8,0.4,6.5,0.1,9.4c0.2,0.6,0.4,1.1,0.5,1.7c0.3,0.5,0.3,1.1,0.7,1.5
			c0.5,0.2,1.2,0.2,1.9,0.2c0.4,0.1,0.7,0.3,1.1,0.3c2.8-0.2,5.5-0.2,8.4-0.2c2.7,0.2,5.8,0.2,8.3-0.2c0.2-0.1,0.1-0.5,0.2-0.8
			c-0.1-0.4,0.2-0.4,0.2-0.8C74.9,70.2,74.9,67.8,74.9,65.3z M61.9,59.1c0.8-0.2,1.5-0.3,2.4-0.3c0.7,0.1,1.3,0.3,1.9,0.5
			c0.1,0.2-0.2,0.5,0.2,0.7V60c0.1,0,0.1,0,0.2,0.1c0.4,0,0.8,0.2,1.1,0.4c0.5,0.1,0.5,0.5,1.1,0.4c-0.1,0.2-0.1,0.5-0.1,0.8
			c0.3,1.2,0.5,2.8,0.3,4.3c-0.2,0.2-0.2,0.4-0.3,0.7c-0.3,0.3-0.5,0.8-0.8,1.1c-0.1,0.2-0.3,0.4-0.5,0.5c-0.1,0.2-0.2,0.5-0.5,0.5
			c-0.3,0.2-0.6,0-0.8-0.1c-0.4,0.2-0.9,0.3-1.2,0.6c-0.8-0.1-1.6-0.2-2.4-0.3c-0.2-0.1-0.5-0.3-0.8-0.3c-0.2-0.2-0.5-0.4-0.8-0.5
			c-0.1-0.1-0.3-0.1-0.5-0.2c-0.2,0-0.2-0.2-0.5-0.2c-0.1-0.4-0.4-0.6-0.5-1.1c-0.2-0.3-0.3-0.8-0.5-1.2c0-1.4,0.1-2.7,0.4-3.8
			c0.3-0.6,0.8-1.1,1.1-1.7c0.2,0,0.4-0.1,0.4-0.3c0.3,0.1,0.4-0.1,0.7-0.1C61.7,59.6,61.7,59.3,61.9,59.1z M60.2,56.4
			c-0.1-0.3-0.1-0.7-0.1-1.1c0-0.3,0.3-0.3,0.3-0.5c0-0.1-0.1-0.1-0.2-0.1c0.1-0.1,0.7-0.1,0.8,0c0.1,0.5-0.4,0.5-0.5,0.7
			c0,0.2,0.3,0,0.5,0.1c0,0.9-0.1,1.5,0,2.2h-0.5c0,0.2,0.2,0.2,0.5,0.2c-0.1,0.3,0.1,0.4,0.1,0.6c-0.2,0.2-0.7,0-1.1,0.1
			C60,58,60.3,57.2,60.2,56.4z M59.5,54.8c0.1,0,0.1,0,0.2,0.1c0.2,0.3,0,0.7-0.1,0.9C59.4,55.6,59.6,55.1,59.5,54.8z M59.7,56.6
			c-0.1-0.1-0.2-0.2-0.2-0.5C59.7,56.2,59.7,56.4,59.7,56.6z M59.7,58c-0.1,0.1-0.1,0-0.1-0.2C59.7,57.7,59.7,57.9,59.7,58z
			 M59.5,58.2c0.2,0,0.1,0.2,0.2,0.2c0,0.2-0.3,0.2-0.4,0.1C59.4,58.4,59.5,58.3,59.5,58.2z M57.2,57c0-0.1,0-0.2-0.1-0.2
			c-0.1-0.7,0.1-1.4,0-2c0.3-0.2,0.8,0,1.1-0.1v1.1c-0.1,0.1-0.2,0.1-0.4,0.1c-0.1,0.3,0.3,0.1,0.4,0.3c0,0.9-0.1,1.8,0.2,2.4
			c-0.6-0.1-0.9,0.1-1.4,0.1c0.1-0.6,0-1.4,0.5-1.6C57.5,57,57.2,57.1,57.2,57z M56.7,57c-0.2,0-0.2-0.5-0.1-0.6
			C56.9,56.4,56.8,56.9,56.7,57z M56.5,58c0.1-0.3,0-0.3,0.1-0.7C56.8,57.3,56.8,58.1,56.5,58z M56.7,55.9c-0.3,0.1-0.3-0.3-0.2-0.4
			C56.8,55.5,56.9,55.8,56.7,55.9z M56.7,54.8c0,0.2-0.1,0.2-0.1,0.3c-0.2,0-0.1-0.2-0.2-0.2C56.5,54.8,56.6,54.8,56.7,54.8z
			 M56.5,58.5c0.1,0,0.1,0.3-0.1,0.2C56.5,58.7,56.5,58.6,56.5,58.5z M55.8,54.8c0,0.3-0.4,0.3-0.4,0H55.8z M54.8,54.9
			c0,0.2-0.3,0.2-0.4,0.4C54.2,55.1,54.5,54.8,54.8,54.9z M54.4,55.6c0.2-0.2,0.5-0.4,0.7-0.6c0-0.1,0.1-0.1,0.1-0.2h0.2
			c0.1,0.4-0.3,0.3-0.3,0.5c0,0.1-0.1,0.1-0.1,0.2c0,0.3,0.1,0.6,0.1,1c-0.3,0-0.3,0.3-0.6,0.2C54.5,56.3,54.3,56.1,54.4,55.6z
			 M54.5,58.9v-1.6c0.2-0.2,0.4-0.4,0.6-0.5c0.3,0.5,0.2,1.4,0.5,1.9C55.2,58.8,54.8,58.8,54.5,58.9z M72.7,70c-0.1,1-0.2,2-0.4,2.8
			c-2.9,0.1-6,0-8.9,0.2c-0.2,0-0.3,0-0.2-0.2c-0.3,0-0.3,0.2-0.5,0.2c0.2-0.3,0.4-0.9,0.2-1.3c-0.8,0-0.8,0.8-1.1,1.3
			c-0.7-0.1-1.1,0.1-1.8,0.1c0.2-0.7,0.7-1,0.9-1.7c-0.4-0.5-1,0.1-1.2,0.5c-0.2,0.5-0.6,0.8-0.8,1.3h-1c0.2-0.5,0.5-0.9,0.8-1.4
			c0.2-0.5,0.6-0.7,0.7-1.4c-0.2-0.3-0.4,0-0.7,0c-0.1,0.2-0.3,0.3-0.4,0.5c-0.2,0.4-0.5,0.7-0.7,1.1c-0.2,0.2-0.3,0-0.5,0.2
			c-0.4,0.3-0.6,0.7-1,1c-0.2-0.1,0-0.4,0.2-0.4c0-0.2-0.1-0.5,0.1-0.6c0.1-0.4,0.2-0.6,0.4-0.9c0.1-0.7,0.5-1.2,0.7-1.9
			c-0.6,0.1-0.7,0.6-1,1c-0.2,0.4-0.5,0.8-0.7,1.3c-0.2-0.1,0-0.6-0.1-0.8c0.1-0.6,0.3-1.1,0.4-1.7c0.1-0.2,0.2-0.5,0.2-0.8
			c0.2-0.2,0-0.6-0.1-0.8c-0.2,0-0.4,0.1-0.5,0.3c-0.2,0-0.2,0.5-0.3,0.3c0-2.6-0.5-4.8-0.5-7.4c0-0.3-0.2-0.4-0.2-0.7
			c1.6,0,3.1,0.1,4.8,0.2c-0.1,0.1-0.2,0.3-0.3,0.4c-0.1,0.1-0.2,0.2-0.4,0.3c-0.6,1.7-1,4-0.6,6.2c0.2,0.6,0.6,1,1,1.4
			c0.9,0.5,1.6,1.1,2.5,1.7c1.7,0.4,3.8,0.4,5.5,0c0.2-0.1,0.5-0.2,0.7-0.4c1.4-1.2,2.8-2.5,3-4.9v-1.4c-0.2-1.6-0.7-2.9-1.7-3.6
			c0.3-0.2,1.1,0,1.7,0.1c0.2,0,0.4,0,0.7,0c0.4,0,0.9-0.1,1.4,0c0.1,0.2,0.1,0.5,0.2,0.8c-0.1,1.7-0.2,3.3-0.2,5.1
			c0.1,0.5,0.1,1,0.2,1.4C73,68.2,72.9,69.1,72.7,70z M73.1,58.8c-0.6-0.1-1.2-0.3-1.9-0.4c0.1-0.3,0.8,0,1-0.2
			c0.4-0.2,0.3-0.9,0.3-1.5c0-0.3,0.1-0.6,0.1-1.1c-0.4-1-1.8-0.4-2.9-0.5c-0.2,0.7-0.5,1.8-0.3,2.7c0.2,0.5,1,0.3,1.5,0.5
			c-0.1,0.3-0.7,0.1-1,0.1c-0.3-0.1-0.7-0.1-1-0.2c-2.3,0.1-4.3,0-6.5,0.2c0.1-1.2,0.1-2.5-0.1-3.6h3.1c-0.3,0.4-0.9,0.5-1.3,0.8
			c-0.4,0.2-0.9,0.5-1.1,0.9c0.2,0.1,0.5-0.2,0.8-0.4c0.4-0.1,0.5-0.4,0.8-0.5c0.4-0.4,1.1-0.6,1.7-0.9c0.4,0,0.7,0,1,0.1
			c1.3,0,2.5,0.1,3.8,0.1c0.6,0.1,1.5,0.1,2,0.3c0.1,0.3,0.2,0.6,0.3,0.9C73.3,57.1,73.1,57.9,73.1,58.8z M67.2,55.1
			C67.3,55,67.2,55,67.2,55.1L67.2,55.1z M67.2,55.1c-0.5,0.2-1,0.3-1.4,0.7C66.3,55.6,66.9,55.5,67.2,55.1z M68.3,55.7
			C68.4,55.6,68.3,55.6,68.3,55.7L68.3,55.7z M66.5,56.6c0.7-0.2,1.2-0.6,1.7-0.9c-0.4,0-0.6,0.3-1,0.4
			C67.1,56.3,66.7,56.3,66.5,56.6z M65.8,55.8C65.7,55.8,65.9,55.9,65.8,55.8L65.8,55.8z M65.2,56.4C65.3,56.3,65.2,56.3,65.2,56.4
			L65.2,56.4z M65.1,56.5C65.2,56.5,65.2,56.4,65.1,56.5C65.1,56.4,65.1,56.4,65.1,56.5z M65,56.5C65.1,56.5,65.1,56.5,65,56.5
			C65,56.4,65,56.5,65,56.5z M64.2,57.1c0.3-0.1,0.6-0.3,0.8-0.6C64.7,56.7,64.4,56.9,64.2,57.1z M66.5,58.1c0.5,0,0.7-0.4,1.2-0.5
			c0.3-0.3,0.8-0.4,1-0.8c-0.6,0-0.8,0.4-1.2,0.5C67.2,57.7,66.7,57.8,66.5,58.1z M64.2,57.1C63.9,57.1,64.2,57.4,64.2,57.1
			L64.2,57.1z M63.6,57.5C63.7,57.5,63.8,57.5,63.6,57.5C63.7,57.4,63.6,57.5,63.6,57.5z M66.5,58.1C66.3,58.2,66.5,58.2,66.5,58.1
			L66.5,58.1z M65.3,59.9c-0.2-0.2-0.7-0.2-1-0.4c-0.7,0-1.2,0.1-1.7,0.2c-0.3,0.2-0.6,0.3-0.9,0.5c-0.3,0.2-0.4,0.4-0.8,0.5
			c-0.2,0.2-0.4,0.5-0.7,0.6c0,0.2-0.2,0.3-0.3,0.4c-0.1,0.1-0.1,0.3-0.2,0.4c0,0.1,0,0.3-0.1,0.3c0.1,1.5,0.3,2.9,0.7,4.2
			c0.3,0.6,1,0.8,1.4,1.3c0.6,0.3,1.3,0.4,2.1,0.5c0.3-0.1,0.6-0.1,0.9-0.1c1.2-0.2,2.1-0.7,2.8-1.4c0.1-0.3,0.3-0.5,0.5-0.7
			c-0.3-0.7,0.3-1.1,0.5-1.6c0-1.3-0.2-2.5-0.6-3.4c-0.3-0.6-0.9-0.8-1.4-1.1c-0.1,0-0.2,0-0.2-0.1C66.1,59.9,65.6,59.8,65.3,59.9z
			 M61.9,64.3c-0.1-0.1-0.1-0.2-0.2-0.4C62,63.8,61.9,64.1,61.9,64.3z M62,64.6C62,64.5,62.1,64.6,62,64.6C62,64.8,62,64.7,62,64.6z
			 M62.4,62.5C62.4,62.4,62.5,62.5,62.4,62.5C62.5,62.6,62.4,62.6,62.4,62.5z M64.1,60.4c-0.2,0.3,0,0.6,0.1,0.8
			C63.9,61.2,63.6,60.4,64.1,60.4z M64.5,64.3C64.4,64.3,64.5,64.3,64.5,64.3C64.6,64.3,64.5,64.4,64.5,64.3z M65.2,67.2
			c0-0.1,0.1,0,0.2,0C65.4,67.3,65.2,67.3,65.2,67.2z M67.4,64.7c-0.2-0.1-0.1,0.2-0.4,0.2c0.1-0.2,0.1-0.3,0.2-0.5
			C67.4,64.4,67.5,64.5,67.4,64.7z M66.3,60.9c0.2,0.1,0.4,0.2,0.6,0.4c0.1,0.2,0.2,0.4,0.4,0.5c0.1,0.8,0.2,1.5,0.2,2.4
			c-0.3,0.1-0.4,0.3-0.7,0.4c-0.8,0-1.4-0.2-1.9-0.5c-0.2-0.3-0.4-0.5-0.5-0.8v-1.1c0.2-0.2,0.3-0.4,0.5-0.6
			c0.2-0.1,0.5-0.2,0.5-0.6c0-0.1-0.1-0.1-0.1-0.2c0.2,0,0.2,0.2,0.4,0.2C65.9,61,66,60.8,66.3,60.9z"/>
	</g>
</g>
</symbol><symbol id="icon-interior" viewBox="-259.4 -19.7 40.2 62.4">
<g>
	<path d="M-244.2,18.3c-0.3,1-0.2,2.2,0,3.6c0.5,2.6,1.7,6,2.4,9.7h5.1c0.7-3.6,1.9-7,2.5-9.7c0.3-1.4,0.3-2.7,0-3.6
		c-0.3-0.9-0.9-1.6-2-2.3h-6C-243.4,16.7-244,17.4-244.2,18.3z"/>
	<path d="M-232.4,38.3h-13.8c-1.3,0-2.3,1-2.3,2.2v2.2h2.3h13.8h2.3v-2.2C-230.1,39.3-231.1,38.3-232.4,38.3z"/>
	<path d="M-225.3-17.4H-237c0-1.2-1-2.2-2.3-2.2c-1.3,0-2.3,1-2.3,2.2h-11.7l-6.1,25.5c0.8-0.5,1.6-1,2.6-1c1.4,0,2.2,0.8,2.9,1.4
		c0.7,0.6,1.2,0.8,1.4,0.8c0.3,0,0.8-0.3,1.5-0.8c0.7-0.5,1.6-1.4,2.9-1.4c1.3,0,2.2,0.8,2.9,1.4c0.7,0.5,1.2,0.8,1.5,0.8
		c0.1,0,0.3-0.1,0.6-0.2c0.2-0.1,0.5-0.4,0.9-0.6c0.5-0.4,1.1-1,2-1.2c0.3-0.1,0.6-0.1,0.9-0.1c1.3,0,2.2,0.8,2.9,1.4
		c0.7,0.5,1.2,0.8,1.5,0.8c0.3,0,0.8-0.3,1.4-0.8c0.7-0.6,1.6-1.4,2.9-1.4c1.4,0,2.2,0.8,2.9,1.4c0.3,0.3,0.6,0.5,0.9,0.6
		c0.2,0.1,0.4,0.2,0.6,0.2c0.3,0,0.8-0.3,1.4-0.9c0.7-0.6,1.6-1.4,2.9-1.4c1,0,1.8,0.5,2.6,1L-225.3-17.4z"/>
	<path d="M-235.9,33.8h-6.9c-0.7,0-1.1,0.5-1.1,1.1c0,0.6,0.5,1.1,1.1,1.1h6.9c0.7,0,1.1-0.5,1.1-1.1
		C-234.7,34.3-235.2,33.8-235.9,33.8L-235.9,33.8z"/>
	<path d="M-239.3,9.3c-0.1,0-0.3,0.1-0.6,0.2c-0.2,0.1-0.4,0.3-0.6,0.4v3.7h2.3V10C-238.7,9.6-239.1,9.3-239.3,9.3z"/>
</g>
</symbol><symbol id="icon-search" viewBox="-0.8 -0.8 17.6 17.6">
<path d="M16.5,14.9l-3.4-3.4c1-1.3,1.5-2.9,1.5-4.6c0-4.3-3.4-7.7-7.7-7.7s-7.7,3.4-7.7,7.7c0,4.3,3.4,7.7,7.7,7.7
	c1.7,0,3.3-0.6,4.6-1.5l3.4,3.4c0.2,0.2,0.4,0.3,0.8,0.3c0.6,0,1.1-0.5,1.1-1.1C16.8,15.5,16.7,15.2,16.5,14.9z M1.4,6.9
	c0-3,2.5-5.5,5.5-5.5s5.5,2.5,5.5,5.5s-2.5,5.5-5.5,5.5S1.4,9.9,1.4,6.9z"/>
</symbol><symbol id="icon-toy" viewBox="226 226.2 60 59.6">
<path d="M226,269.9l27.4,15.9v-23.3L226,246.5V269.9z M277.3,238.6v2.5c0,1.8-3.5,3.3-7.7,3.3
	c-4.3,0-7.7-1.5-7.7-3.3V237h0c0.3,1.7,3.6,3.1,7.7,3.1c4.3,0,7.7-1.5,7.7-3.3c0-1.8-3.5-3.3-7.7-3.3c-0.3,0-0.7,0-1,0l-5-2.9v3.1
	c0,1.8-3.5,3.3-7.7,3.3c-2.7,0-5-0.6-6.4-1.5c-0.2-0.2-0.4-0.4-0.7-0.6c-0.4-0.4-0.6-0.8-0.6-1.2v-3l-4.8,2.8c-0.3,0-0.7,0-1.1,0
	c-4.3,0-7.7,1.5-7.7,3.3c0,1.8,3.5,3.3,7.7,3.3c4.1,0,7.4-1.4,7.7-3.1h0v4.1c0,1.8-3.5,3.3-7.7,3.3c-4.3,0-7.7-1.5-7.7-3.3v-2.4
	l-6,3.5l27.5,16l27.4-15.9L277.3,238.6z M263.7,248.8c0,1.8-3.5,3.3-7.7,3.3c-4.3,0-7.7-1.5-7.7-3.3v-4.1h0c0.3,1.7,3.6,3.1,7.7,3.1
	c4.1,0,7.4-1.4,7.7-3.1h0V248.8L263.7,248.8z M258.6,262.7v23.1l27.4-15.9v-23.1L258.6,262.7z M255.9,232.8c4.3,0,7.7-1.5,7.7-3.3
	c0-1.8-3.5-3.3-7.7-3.3c-4.3,0-7.7,1.5-7.7,3.3C248.2,231.3,251.6,232.8,255.9,232.8"/>
</symbol><symbol id="icon-twitter" viewBox="52.3 53.8 23.5 20.2">
<g id="twitter">
	<g>
		<path d="M75.7,57.9c-0.2-0.4-0.9-0.3-1.4-0.4h-1.1c0.1-0.4,0.3-0.6,0.5-1c0.1-0.4,0.3-0.7,0.2-1.3
			c0.1-0.2,0.2-0.4,0.3-0.6c0.1-0.1,0.2-0.5,0.1-0.7c-0.1-0.2-0.3-0.2-0.6-0.2c-0.1,0-0.2,0.1-0.2,0.1c-0.4,0.4-0.8,1-1.3,1.4
			c0,0-0.1,0-0.1,0c-0.1,0,0,0-0.1,0.1c-0.1,0.1-0.3,0.2-0.4,0.2c-0.3,0.2-0.5,0.4-0.9,0.5c-0.5-0.2-1.2-0.3-1.9-0.4
			c-1.2,0.1-2.3,0.2-3,0.7c-0.9,0.3-1.5,1-2.1,1.6c0,0.3-0.3,0.4-0.4,0.7c0,0,0,0.1-0.1,0.1c0,0.2-0.1,0.3-0.1,0.5
			c0,0.1,0.2,0.4,0,0.5c-0.8-0.1-1.5-0.6-2.1-1c-0.7-0.4-1.5-0.6-2.1-1.1c-0.7-0.3-1.3-0.8-1.8-1.3c-0.2-0.3-0.5-0.5-0.7-0.9
			c-0.4-0.2-0.2-0.9-0.7-0.9c-0.3,0-0.3,0.2-0.4,0.4c-0.1,0.2-0.4,0.2-0.4,0.5c0,0,0,0.1-0.1,0.1c-0.2,1.1-0.5,2-0.5,3.3
			c0.1,0.4,0.3,0.7,0.6,1c-0.4,0.1-0.7,0.2-0.9,0.5c-0.1,1.1,0.4,1.6,0.7,2.3c0.1,0.4,0.4,0.7,0.6,1c0,0.2,0.2,0.3,0.3,0.4
			c0,0.1,0.1,0.1,0.1,0.2c0,0.1,0.3,0.2,0.1,0.2c-0.4,0.1-1,0.1-1.3,0.4c-0.1,0.3-0.1,0.8,0,1.1c0,0.2,0.3,0.3,0.3,0.5
			c0.5,0.4,1.1,0.7,1.6,1.1c0.6,0.2,1.2,0.3,1.9,0.4c-0.1,0.3-0.3,0.6-0.6,0.7c-0.8,0.4-1.8,0.5-2.7,0.7c-0.6,0-1,0.2-1.6,0.2
			c-0.3,0.1-0.9,0.1-1.1,0.2c-0.1,0.1-0.1,0.1-0.2,0.2c-0.1,0.4,0.1,0.7,0.4,0.9c0,0.3,0.2,0.3,0.4,0.4c0.1,0.2,0.3,0.3,0.4,0.4
			c0.5,0.5,1.3,0.8,1.9,1.1c0.8,0.2,1.6,0.4,2.5,0.5c0.9,0.1,1.9,0.1,2.8,0.2h1c0.5,0.1,1.2,0.1,1.9,0.1c0.1-0.1,0.3-0.1,0.5-0.1
			c0.5-0.3,1.2-0.4,1.6-0.7c0.6-0.2,1-0.6,1.6-0.9c0.9-0.8,1.9-1.3,2.5-2.4c0.2-0.2,0.4-0.4,0.4-0.7c0.3-0.2,0.4-0.5,0.6-0.7
			c0.4-0.4,0.7-0.9,1-1.4c0.3-0.5,0.6-1.1,0.9-1.6c0-0.4,0.3-0.5,0.3-0.9c0.2-0.2,0.2-0.7,0.4-0.9c0-0.3,0-0.4,0.1-0.6
			c0-1.3,0-2.4-0.3-3.4c0.6-0.2,1.2-0.3,1.6-0.6C75.4,58.9,75.9,58.5,75.7,57.9z M72.3,61.9c-0.2,0.9-0.6,1.4-1,2
			c0.1,0.4-0.1,0.5-0.1,0.9c-0.2,0.3-0.3,0.7-0.4,1c-0.2,0.3-0.3,0.6-0.5,0.9c-0.4,0.5-0.8,1.1-1.2,1.6c-0.4,0.6-0.9,1-1.3,1.5
			c-0.4,0.5-0.9,0.9-1.4,1.3c-0.5,0.2-0.9,0.4-1.3,0.7c-0.2,0.1-0.5,0.2-0.7,0.3c-0.2,0.1-0.5,0.1-0.7,0.3c-1.1,0.1-2.3,0.2-3.6,0.1
			c-1-0.1-2.1-0.2-3-0.4c-0.9-0.2-1.5-0.7-2.3-1c0.2-0.2,0.6-0.2,1-0.2c0-0.2,0.4,0,0.4-0.1c0.3,0.1,0.3-0.1,0.5-0.1
			c0.6-0.2,1.2-0.3,1.7-0.6c0.3-0.1,0.4-0.4,0.7-0.6c0-0.2,0.1-0.3,0.2-0.4c0-0.3,0.2-0.4,0.1-0.8c0.1-0.2,0.3-0.3,0.3-0.7
			c-0.1-0.1-0.1-0.3-0.3-0.4c0-0.2-0.4-0.1-0.4-0.2c-0.3,0-0.4,0-0.6-0.1c-0.2,0-0.5,0.1-0.5-0.1c-0.8,0-1.3-0.4-1.9-0.7
			c0.4-0.3,1-0.4,1.3-0.7c0.5-0.1,1.1-0.1,1.1-0.7c0-0.7-0.8-0.7-1.3-0.8c-0.8-0.7-1.2-1.7-1.8-2.5c0.2-0.2,0.6-0.2,0.7-0.4
			c0.5,0.1,0.5-0.3,0.7-0.5c0-0.5-0.3-0.6-0.6-0.8c-0.3-0.2-0.5-0.5-0.7-0.7c0-0.8,0-1.7,0.1-2.4c0.1,0,0.1,0,0.1,0.1
			c0.2,0.4,0.6,0.8,0.8,1.2c0.5,0.4,0.9,0.9,1.6,1.1c0.5,0.4,1.1,0.6,1.6,1c0.6,0.3,1.2,0.6,1.7,0.9c0.7,0.2,1.1,0.7,2,0.6
			c0.2-0.1,0.4-0.2,0.6-0.3c0.3-0.5-0.1-1.1,0.1-1.6c0.3-0.7,0.8-1,1.3-1.5c0.3-0.2,0.6-0.3,0.8-0.5c0.3-0.1,0.7-0.2,1-0.4
			c0.4,0,0.7-0.1,1-0.1h1.3c0.2,0.1,0.5,0.1,0.7,0.1c0.2,0.1,0.4,0.3,0.7,0.4c0.8,0.7,1.3,1.7,1.4,3C72.2,60.9,72.3,61.3,72.3,61.9z
			 M72.6,56.3c-0.1,0.3-0.2,0.7-0.6,0.8c0-0.1-0.1-0.1-0.1-0.2c0-0.2,0.2-0.2,0.3-0.3C72.3,56.5,72.4,56.3,72.6,56.3
			C72.6,56.2,72.7,56.3,72.6,56.3z M67.1,59.3c0.2,0.1,0.3,0.3,0.5,0.4c0.1,0.2,0.3,0.3,0.6,0.4c0-0.2,0.3,0,0.4-0.2
			c0.2,0,0.2-0.2,0.3-0.3c0-0.5-0.1-1-0.4-1.3C67.8,57.8,66.8,58.3,67.1,59.3z"/>
	</g>
</g>
</symbol></svg>